<?xml version="1.0" encoding="UTF-8"?>
<svg width="120" height="40" viewBox="0 0 120 40" fill="none" xmlns="http://www.w3.org/2000/svg">
  <!-- AI Brain/Circuit Icon -->
  <g transform="translate(8, 8)">
    <!-- Brain outline -->
    <path d="M12 2C8.5 2 6 4.5 6 8C6 9 6.2 9.9 6.5 10.7C5.6 11.5 5 12.7 5 14C5 15.8 6.2 17.3 8 17.8C8 17.9 8 17.9 8 18C8 20.2 9.8 22 12 22C14.2 22 16 20.2 16 18C16 17.9 16 17.9 16 17.8C17.8 17.3 19 15.8 19 14C19 12.7 18.4 11.5 17.5 10.7C17.8 9.9 18 9 18 8C18 4.5 15.5 2 12 2Z" 
          stroke="#2563eb" stroke-width="1.5" fill="none"/>
    
    <!-- Circuit nodes -->
    <circle cx="10" cy="8" r="1.5" fill="#2563eb"/>
    <circle cx="14" cy="8" r="1.5" fill="#2563eb"/>
    <circle cx="12" cy="12" r="1.5" fill="#2563eb"/>
    <circle cx="9" cy="15" r="1" fill="#16a34a"/>
    <circle cx="15" cy="15" r="1" fill="#16a34a"/>
    
    <!-- Circuit connections -->
    <line x1="10" y1="8" x2="12" y2="12" stroke="#2563eb" stroke-width="1"/>
    <line x1="14" y1="8" x2="12" y2="12" stroke="#2563eb" stroke-width="1"/>
    <line x1="12" y1="12" x2="9" y2="15" stroke="#16a34a" stroke-width="1"/>
    <line x1="12" y1="12" x2="15" y2="15" stroke="#16a34a" stroke-width="1"/>
  </g>
  
  <!-- Medical cross -->
  <g transform="translate(2, 18)">
    <rect x="8" y="4" width="2" height="8" rx="1" fill="#16a34a"/>
    <rect x="5" y="7" width="8" height="2" rx="1" fill="#16a34a"/>
  </g>
  
  <!-- Text -->
  <text x="44" y="16" font-family="Arial, sans-serif" font-size="14" font-weight="bold" fill="#1f2937">
    Intelli
  </text>
  <text x="44" y="30" font-family="Arial, sans-serif" font-size="14" font-weight="bold" fill="#2563eb">
    Care
  </text>
</svg>